<?xml version="1.0" encoding="utf-8"?>
<!-- Generator: Adobe Illustrator 24.0.1, SVG Export Plug-In . SVG Version: 6.00 Build 0)  -->
<svg version="1.1" id="Layer_1" xmlns="http://www.w3.org/2000/svg" xmlns:xlink="http://www.w3.org/1999/xlink" x="0px" y="0px"
	 viewBox="0 0 1000 1000" style="enable-background:new 0 0 1000 1000;" xml:space="preserve">
<style type="text/css">
	.st0{fill:#066DA4;}
	.st1{fill:#076DA4;}
	.st2{fill:#076CA4;}
	.st3{fill:#066CA4;}
	.st4{fill:#056CA4;}
</style>
<g>
	<path class="st0" d="M-483.99,296.8c60.7,0,121.39,0.02,182.09-0.04c6.49-0.01,13.05-0.06,19.45-0.97
		c9.61-1.38,20.84-1.37,27.54-8.23c7.79-7.98-2.7-16.39-4.37-24.66c-5.48-27.25,1.53-51.34,14.86-74.52
		c3.94-6.85,7.89-6.9,14.14-2.15c17.15,13.04,31.9,27.87,38.2,49.02c2.42,8.13,6.06,10.83,14.64,10.03
		c19.11-1.78,37.65,0.71,55.36,9.15c9.98,4.76,12.49,9.9,6.73,20.01c-15.84,27.79-39.2,42.88-71.25,42.7
		c-10.04-0.06-15.04,2.87-19.41,12.15c-52.49,111.38-143.69,164.56-263.72,172.9c-38.48,2.68-76.89,1.47-113.54-13.24
		c-63.13-25.34-94.28-74.69-104.27-139.54c-1.97-12.76-3.5-25.67-2.51-38.82c0.8-10.71,4.63-14.18,15.84-14.07
		C-610.81,297.12-547.4,296.8-483.99,296.8z"/>
	<path class="st1" d="M-615.18,232.04c29.55,0,29.55,0,29.55,29.28c0,24.9,0,24.9-26.38,24.9c-33.34,0-33.34,0-33.34-32.17
		C-645.35,232.04-645.35,232.04-615.18,232.04z"/>
	<path class="st2" d="M-544.43,286.21c-29.36,0-29.36,0-29.36-28.07c0-26.11,0-26.11,27.71-26.11c30.94,0,30.94,0,30.94,27.71
		C-515.14,286.22-515.14,286.22-544.43,286.21z"/>
	<path class="st1" d="M-471.98,232.04c28.42,0,28.42,0,28.42,28.49c0,25.69,0,25.69-26.72,25.69c-32.65,0-32.65,0-32.65-29.68
		C-502.92,232.04-502.92,232.04-471.98,232.04z"/>
	<path class="st1" d="M-403.06,232.04c29.07,0,29.07,0,29.07,29.78c0,24.4,0,24.4-25.28,24.4c-34.39,0-34.39,0-34.39-31.08
		C-433.66,232.04-433.66,232.04-403.06,232.04z"/>
	<path class="st2" d="M-332.28,286.19c-29.98,0.02-29.98,0.02-29.98-30.63c0-3.78,0.49-7.64-0.1-11.32
		c-1.64-10.31,2.82-13.73,12.57-12.25c2.64,0.4,5.39,0.06,8.09,0.06c44.5-0.01,44.8,0.48,39.28,45.61c-0.74,6.04-2.64,8.78-8.8,8.57
		C-318.23,286-325.26,286.18-332.28,286.19z"/>
	<path class="st3" d="M-403.1,101.18c29.08,0,29.08,0,29.09,28.42c0,24.76,0,24.76-26.08,24.76c-33.56,0-33.56,0-33.56-29.91
		C-433.65,101.18-433.65,101.18-403.1,101.18z"/>
	<path class="st4" d="M-544.93,219.88c-28.85,0-28.85,0-28.85-28.31c0-24.85,0-24.85,27.36-24.85c31.27,0,31.27,0,31.27,29.03
		C-515.15,219.88-515.15,219.88-544.93,219.88z"/>
	<path class="st4" d="M-472.03,166.72c28.46,0,28.46,0,28.46,28.43c0,24.73,0,24.73-25.84,24.73c-33.51,0-32.56-0.04-33.92-33.39
		c-0.66-16.13,3.43-22.95,19.99-19.87C-479.68,167.29-475.8,166.72-472.03,166.72z"/>
	<path class="st3" d="M-403.73,166.71c29.72,0,29.72,0,29.72,29.22c0,3.24-0.4,6.54,0.07,9.71c1.67,11.25-2.73,16.13-14.17,14.28
		c-1.58-0.26-3.25,0.09-4.85-0.06c-13.22-1.2-30.84,6.02-38.48-3.12c-6.46-7.73-1.33-24.73-2.38-37.54
		c-0.81-9.8,1.95-14.01,12.29-12.64C-415.7,167.35-409.67,166.71-403.73,166.71z"/>
</g>
</svg>
