<svg id="facebook" xmlns="http://www.w3.org/2000/svg" width="63.886" height="63.854" viewBox="0 0 63.886 63.854">
  <path id="Path_46" data-name="Path 46" d="M1065.625,1401.4c-.091,0-.2.077-.255-.071h.26c.029.019.038.035.027.05A.044.044,0,0,1,1065.625,1401.4Z" transform="translate(-1035.649 -1401.33)" fill="#888"/>
  <path id="Path_47" data-name="Path 47" d="M1090.06,1401.33c-.05.148-.165.066-.255.072-.033-.014-.043-.029-.035-.045s.019-.027.029-.027Z" transform="translate(-1055.973 -1401.33)" fill="#888"/>
  <path id="Path_48" data-name="Path 48" d="M1067.56,1401.4c0-.023,0-.048.006-.071h.174c.029.019.038.035.027.05s-.021.022-.031.022Z" transform="translate(-1037.49 -1401.33)" fill="#616161"/>
  <path id="Path_49" data-name="Path 49" d="M1069.06,1401.4c0-.024,0-.049,0-.073h.174q.044.028.028.052c-.01.015-.021.023-.031.023Z" transform="translate(-1038.74 -1401.33)" fill="#494949"/>
  <path id="Path_50" data-name="Path 50" d="M1070.56,1401.406c0-.025,0-.05,0-.075h.174A.147.147,0,0,1,1070.56,1401.406Z" transform="translate(-1039.996 -1401.33)" fill="#363636"/>
  <path id="Path_51" data-name="Path 51" d="M1085.728,1401.406c-.074.009-.141,0-.178-.075h.174c.027.015.037.031.029.049S1085.737,1401.406,1085.728,1401.406Z" transform="translate(-1052.479 -1401.33)" fill="#363636"/>
  <path id="Path_52" data-name="Path 52" d="M1087.053,1401.406c0-.025,0-.05,0-.075h.174c.027.015.037.031.029.049s-.016.027-.026.027Z" transform="translate(-1053.729 -1401.33)" fill="#494949"/>
  <path id="Path_53" data-name="Path 53" d="M1088.553,1401.406c0-.024,0-.05,0-.075h.174a.684.684,0,0,0,.006.072Z" transform="translate(-1054.984 -1401.33)" fill="#616161"/>
  <g id="Group_37" data-name="Group 37" transform="translate(0)">
    <path id="Path_54" data-name="Path 54" d="M918.161,1401.33H920.4c.08.087.187.058.285.065h.465c.125-.017.262.043.372-.065h.25c1.27.15,2.55.182,3.811.446a32.261,32.261,0,0,1,25.465,27.122,38.911,38.911,0,0,1,.147,6.582,27.248,27.248,0,0,1-1.613,8.213,32.322,32.322,0,0,1-18.2,19.219,27.948,27.948,0,0,1-9.784,2.221,36.473,36.473,0,0,1-8.612-.463,32.312,32.312,0,0,1-24.7-23.2,20.742,20.742,0,0,1-.842-5.4.306.306,0,0,0-.065-.231v-.5c.087-.08.058-.187.065-.285v-.3c-.007-.1.022-.2-.065-.283v-2.493c.087-.08.058-.187.065-.285v-.3c-.007-.1.022-.2-.065-.283v-.5c.15-1,.152-2.011.33-3.011a32.216,32.216,0,0,1,13.738-21,31.354,31.354,0,0,1,13.437-5.129c.548-.075,1.11-.022,1.656-.145h.5c.108.108.247.048.372.065h.465C917.975,1401.388,918.081,1401.416,918.161,1401.33Z" transform="translate(-887.38 -1401.33)" fill="#036af2"/>
    <path id="Path_55" data-name="Path 55" d="M887.466,1581.435c0,.086,0,.173,0,.259-.02.044-.044.048-.072.006v-.26C887.413,1581.4,887.438,1581.4,887.466,1581.435Z" transform="translate(-887.389 -1551.359)" fill="#5a5a5a"/>
    <path id="Path_56" data-name="Path 56" d="M887.461,1601.649c0,.086,0,.173,0,.259-.028.035-.052.032-.076,0v-.26C887.417,1601.6,887.441,1601.6,887.461,1601.649Z" transform="translate(-887.389 -1568.191)" fill="#5a5a5a"/>
    <path id="Path_57" data-name="Path 57" d="M887.466,1580.33c-.026,0-.05,0-.076,0v-.174C887.5,1580.181,887.474,1580.259,887.466,1580.33Z" transform="translate(-887.389 -1550.347)" fill="gray"/>
    <path id="Path_58" data-name="Path 58" d="M887.39,1583.866l.072-.006a.143.143,0,0,1-.072.18Z" transform="translate(-887.389 -1553.429)" fill="#3e3e3e"/>
    <path id="Path_59" data-name="Path 59" d="M887.461,1600.541a.7.7,0,0,1-.071-.007v-.174A.143.143,0,0,1,887.461,1600.541Z" transform="translate(-887.389 -1567.178)" fill="#3e3e3e"/>
    <path id="Path_60" data-name="Path 60" d="M887.39,1604.11a.542.542,0,0,1,.076,0c.008.071.031.149-.076.17Z" transform="translate(-887.389 -1570.304)" fill="#818181"/>
    <path id="Path_61" data-name="Path 61" d="M1029.7,1507.621c0-2.015-.008-4.029.008-6.044,0-.326-.074-.416-.4-.4-.622.029-1.245,0-1.868.014-.233.006-.287-.069-.286-.292.009-1.333.012-2.667,0-4,0-.246.091-.282.3-.279.637.01,1.275-.009,1.911.009.266.008.342-.069.343-.338,0-1.072-.071-2.146.038-3.216.31-3.021,2.043-4.686,5.07-4.813,1.33-.056,2.665,0,4-.006.244,0,.282.1.281.313-.007,1.275-.01,2.551,0,3.826,0,.257-.086.31-.323.307-.812-.013-1.622-.009-2.433,0a1.106,1.106,0,0,0-1.265,1.246c-.009.782.011,1.566-.009,2.347-.007.273.077.34.341.336,1.13-.014,2.26.007,3.389-.014.33-.006.373.1.338.4q-.225,1.92-.4,3.846c-.023.262-.091.339-.356.335-.971-.016-1.942.008-2.911-.015-.32-.008-.4.067-.4.4.013,4.029,0,8.059.017,12.087,0,.364-.087.45-.448.445-1.491-.023-2.984-.026-4.476,0-.4.007-.471-.117-.467-.486C1029.708,1511.622,1029.7,1509.622,1029.7,1507.621Z" transform="translate(-1001.265 -1467.727)" fill="#fefefe"/>
  </g>
</svg>
