<svg id="instagram" xmlns="http://www.w3.org/2000/svg" xmlns:xlink="http://www.w3.org/1999/xlink" width="63.295" height="63.855" viewBox="0 0 63.295 63.855">
  <defs>
    <linearGradient id="linear-gradient" x1="0.5" x2="0.164" y2="1" gradientUnits="objectBoundingBox">
      <stop offset="0" stop-color="#515bd4"/>
      <stop offset="0.129" stop-color="#8134af"/>
      <stop offset="0.324" stop-color="#dd2a7b"/>
      <stop offset="0.652" stop-color="#feda77"/>
      <stop offset="1" stop-color="#f58529"/>
    </linearGradient>
  </defs>
  <path id="Path_67" data-name="Path 67" d="M-641.27,595.78a.525.525,0,0,1,0,.7Z" transform="translate(641.271 -564.825)" fill="#0c0c0c"/>
  <path id="Path_68" data-name="Path 68" d="M-641.184,615.483c0,.115,0,.231,0,.346-.036.044-.07.045-.1-.006v-.349C-641.242,615.419-641.21,615.425-641.184,615.483Z" transform="translate(641.28 -582.037)" fill="#5a5a5a"/>
  <path id="Path_69" data-name="Path 69" d="M-641.175,614.011l-.1-.008v-.232A.19.19,0,0,1-641.175,614.011Z" transform="translate(641.271 -580.586)" fill="#3e3e3e"/>
  <path id="Path_70" data-name="Path 70" d="M-641.172,589.476c.019.1.013.191-.1.238v-.233C-641.241,589.433-641.208,589.429-641.172,589.476Z" transform="translate(641.271 -559.294)" fill="#535353"/>
  <path id="Path_71" data-name="Path 71" d="M-641.27,618.77a.986.986,0,0,1,.1.006c.01.1.042.2-.1.227Z" transform="translate(641.271 -584.962)" fill="#818181"/>
  <path id="Path_72" data-name="Path 72" d="M-641.172,588.007l-.1.006v-.232C-641.137,587.811-641.158,587.91-641.172,588.007Z" transform="translate(641.271 -557.84)" fill="#707070"/>
  <g id="Group_38" data-name="Group 38" transform="translate(0.001 0)">
    <path id="Path_73" data-name="Path 73" d="M-611.848,411.714h-.495a36.84,36.84,0,0,1-3.957-.541,31.65,31.65,0,0,1-13.918-6.959,32,32,0,0,1-7.893-10.119,31.015,31.015,0,0,1-3.016-9.9c-.076-.59-.03-1.194-.143-1.783v-.5c.085-.08.057-.186.064-.284v-.3c-.006-.1.022-.2-.064-.284v-1.5a.959.959,0,0,0,0-.749v-.5c.077-.069.061-.162.064-.25s.012-.181-.064-.25v-.624a34.664,34.664,0,0,1,.559-4.234,32.062,32.062,0,0,1,6.648-13.674,31.722,31.722,0,0,1,10.216-8.188A30.4,30.4,0,0,1-613.985,348c.584-.076,1.181-.03,1.765-.145h.495c.077.085.179.059.275.065h.441c.1,0,.2.02.273-.065h2.225c.082.087.189.057.288.065h.538c.1-.006.205.022.286-.065h.247a34.929,34.929,0,0,1,4.2.535,31.467,31.467,0,0,1,13.593,6.671,31.884,31.884,0,0,1,9.424,13.212,25.561,25.561,0,0,1,1.89,8.783.309.309,0,0,0,.064.231v.624a.286.286,0,0,0,0,.374v.5a.959.959,0,0,0,0,.749v.624a.959.959,0,0,0,0,.749v.374a.162.162,0,0,0,0,.25v.873c-.148,1-.147,2.015-.328,3.015a31.826,31.826,0,0,1-6.06,13.833,31.554,31.554,0,0,1-9.291,8.28,31.028,31.028,0,0,1-11.484,4.015c-.709.1-1.43.039-2.136.163h-.247c-.1-.1-.229-.051-.346-.065-.094,0-.2-.02-.272.065h-.618a.662.662,0,0,0-.618,0h-.495a.936.936,0,0,0-.742,0h-.495c-.074-.082-.172-.06-.265-.065h-.213C-611.676,411.655-611.775,411.632-611.848,411.714Z" transform="translate(641.27 -347.86)" fill="url(#linear-gradient)"/>
    <path id="Path_74" data-name="Path 74" d="M-393.37,858.676a.527.527,0,0,1,.7,0Z" transform="translate(424.049 -794.821)" fill="#101010"/>
    <path id="Path_75" data-name="Path 75" d="M-130.475,607.468a.527.527,0,0,1,0-.7Z" transform="translate(193.769 -574.442)" fill="#161616"/>
    <path id="Path_76" data-name="Path 76" d="M-130.481,596.468a.524.524,0,0,1,0-.7Z" transform="translate(193.775 -564.816)" fill="#0e0e0e"/>
    <path id="Path_77" data-name="Path 77" d="M-383.37,858.7a.391.391,0,0,1,.581,0Z" transform="translate(415.283 -794.841)" fill="#101010"/>
    <path id="Path_78" data-name="Path 78" d="M-371.693,858.684c.121,0,.271-.1.339.094h-.349c-.04-.024-.051-.047-.036-.066A.062.062,0,0,1-371.693,858.684Z" transform="translate(405.09 -794.924)" fill="#7a7a7a"/>
    <path id="Path_79" data-name="Path 79" d="M-374.346,347.972l-.346,0c-.043-.019-.058-.04-.047-.062s.026-.036.038-.036h.349c.036.021.049.043.04.066S-374.334,347.972-374.346,347.972Z" transform="translate(407.718 -347.869)" fill="#4e4e4e"/>
    <path id="Path_80" data-name="Path 80" d="M-130.382,589.129c-.139-.116-.179-.233,0-.349Z" transform="translate(193.676 -558.711)" fill="#5c5c5c"/>
    <path id="Path_81" data-name="Path 81" d="M-402.133,347.969c-.1.012-.2.037-.227-.1h.232c.04.024.051.047.036.069S-402.119,347.969-402.133,347.969Z" transform="translate(431.914 -347.869)" fill="gray"/>
    <path id="Path_82" data-name="Path 82" d="M-369.473,347.861c-.028.144-.133.11-.228.1-.041-.02-.056-.041-.043-.064s.026-.035.038-.035Z" transform="translate(403.336 -347.86)" fill="#909090"/>
    <path id="Path_83" data-name="Path 83" d="M-371.15,347.861a.917.917,0,0,0,0,.1l-.231,0a.606.606,0,0,1-.006-.1Z" transform="translate(404.767 -347.86)" fill="#717171"/>
    <path id="Path_84" data-name="Path 84" d="M-130.263,616c-.149-.078-.129-.155,0-.233Z" transform="translate(193.557 -582.337)" fill="#555"/>
    <path id="Path_85" data-name="Path 85" d="M-376.139,347.87a.932.932,0,0,0,.008.1.2.2,0,0,1-.239-.1Z" transform="translate(409.138 -347.869)" fill="#363636"/>
    <path id="Path_86" data-name="Path 86" d="M-396.452,347.87a.2.2,0,0,1-.237.1c-.034-.024-.044-.048-.031-.069s.024-.031.037-.031Z" transform="translate(426.976 -347.869)" fill="#363636"/>
    <path id="Path_87" data-name="Path 87" d="M-403.36,858.838c.028-.145.131-.11.227-.1.041.02.056.041.043.063s-.026.035-.038.035Z" transform="translate(432.79 -794.984)" fill="#929292"/>
    <path id="Path_88" data-name="Path 88" d="M-401.405,858.938c0-.033,0-.065,0-.1h.231c.042.019.057.04.045.062s-.026.035-.038.035Z" transform="translate(431.082 -795.083)" fill="#737373"/>
    <path id="Path_89" data-name="Path 89" d="M-399.414,858.876c0-.032,0-.065-.006-.1.1-.02.192-.016.238.1Z" transform="translate(429.337 -795.022)" fill="#565656"/>
    <path id="Path_90" data-name="Path 90" d="M-398.469,347.87a.977.977,0,0,1-.006.1h-.233c-.035-.024-.045-.047-.033-.069s.024-.031.037-.031Z" transform="translate(428.746 -347.869)" fill="#494949"/>
    <path id="Path_91" data-name="Path 91" d="M-400.173,347.87a.975.975,0,0,1,0,.1l-.233,0a.941.941,0,0,0,.006-.1Z" transform="translate(430.204 -347.869)" fill="#616161"/>
    <path id="Path_92" data-name="Path 92" d="M-373.129,858.778c0,.031-.006.063-.008.094h-.233C-373.324,858.755-373.232,858.755-373.129,858.778Z" transform="translate(406.509 -795.018)" fill="#565656"/>
    <path id="Path_93" data-name="Path 93" d="M-532.31,475.784c.009-2.751-.028-5.5.132-8.249.214-3.66,1.417-6.812,4.539-8.946a11.207,11.207,0,0,1,5.966-1.842c5.547-.244,11.1-.261,16.646,0,3.637.172,6.741,1.5,8.8,4.733a11.764,11.764,0,0,1,1.723,5.952c.234,5.607.257,11.218,0,16.824-.183,3.927-1.651,7.194-5.156,9.24a11.521,11.521,0,0,1-5.428,1.462c-5.5.229-11.013.252-16.518-.007-3.585-.168-6.664-1.455-8.747-4.6a12.265,12.265,0,0,1-1.822-6.186C-532.345,481.371-532.3,478.578-532.31,475.784Z" transform="translate(544.977 -443.921)" fill="none" stroke="#fff" stroke-width="7"/>
    <path id="Path_95" data-name="Path 95" d="M-452.026,528.37a8.755,8.755,0,0,1,8.761,8.785,8.76,8.76,0,0,1-8.8,8.747,8.759,8.759,0,0,1-8.733-8.757A8.758,8.758,0,0,1-452.026,528.37Z" transform="translate(483.678 -505.208)" fill="none" stroke="#fff" stroke-width="5"/>
    <path id="Path_96" data-name="Path 96" d="M-322.471,511.851a2.022,2.022,0,0,1-2.012-2.095,2.025,2.025,0,0,1,2.065-1.987,2.035,2.035,0,0,1,2.018,2.039A2.031,2.031,0,0,1-322.471,511.851Z" transform="translate(363.833 -487.719)" fill="#fefefe"/>
  </g>
</svg>
