<svg xmlns="http://www.w3.org/2000/svg" width="63.803" height="63.854" viewBox="0 0 63.803 63.854">
  <g id="linkedin" transform="translate(0)">
    <path id="Path_98" data-name="Path 98" d="M-826.42,302.283V297.3a32.64,32.64,0,0,1,.562-4.357,31.848,31.848,0,0,1,6.709-13.662,31.9,31.9,0,0,1,10.306-8.177,29.3,29.3,0,0,1,10.937-3.159,32.472,32.472,0,0,1,15.723,2.269,33.033,33.033,0,0,1,9.717,6.39,31.919,31.919,0,0,1,7.8,11.632,27.7,27.7,0,0,1,2,9.257,36.077,36.077,0,0,1-.678,9.577,31.893,31.893,0,0,1-4.882,10.962,31.75,31.75,0,0,1-10.351,9.53,31.39,31.39,0,0,1-11.519,3.954c-.733.1-1.48.036-2.215.151h-4.731a30.839,30.839,0,0,1-4.418-.578,31.841,31.841,0,0,1-12.528-5.855,32.167,32.167,0,0,1-8.333-9.465,31.386,31.386,0,0,1-3.953-11.521C-826.355,303.6-826.3,302.933-826.42,302.283Z" transform="translate(826.42 -267.814)" fill="#33a0ff"/>
    <path id="Path_99" data-name="Path 99" d="M-603.184,466.965c.176-.223.253-.312.321-.409a7.711,7.711,0,0,1,7.74-3.329c4.414.505,7.146,3.4,7.7,7.94a22.714,22.714,0,0,1,.163,2.792c0,4.17-.006,8.339.013,12.51,0,.479-.11.617-.6.609q-3.267-.043-6.535,0c-.5.006-.651-.095-.649-.629.025-4.066.01-8.132.01-12.2a7.974,7.974,0,0,0-.251-1.968,3.5,3.5,0,0,0-2.61-2.868,4.014,4.014,0,0,0-4.127,1.239,3.937,3.937,0,0,0-1.133,2.623q-.034,2.769-.044,5.538c-.008,2.572-.013,5.146.009,7.718,0,.434-.106.548-.542.544q-3.36-.034-6.722,0c-.387,0-.523-.071-.523-.5.019-7.468.106-14.937.006-22.4-.005-.4.119-.482.49-.479,2.261.016,4.523.021,6.784,0,.449,0,.509.171.5.547C-603.2,465.093-603.184,465.953-603.184,466.965Z" transform="translate(637.85 -438.775)" fill="#fefefe"/>
    <path id="Path_100" data-name="Path 100" d="M-699.826,479.082c0,3.712-.009,7.423.011,11.135,0,.461-.1.589-.577.584-2.218-.027-4.437-.021-6.656-.005-.4,0-.574-.042-.573-.518q.024-11.167,0-22.332c0-.464.164-.537.572-.533,2.219.017,4.438.024,6.656,0,.485-.006.577.151.574.6C-699.833,471.7-699.826,475.391-699.826,479.082Z" transform="translate(722.447 -442.498)" fill="#fefefe"/>
    <path id="Path_101" data-name="Path 101" d="M-706.8,377.3a4.126,4.126,0,0,1,3.834,2.069,3.905,3.905,0,0,1-.066,4.081,4.728,4.728,0,0,1-6.134,1.368,3.984,3.984,0,0,1-1.586-5.277A4.2,4.2,0,0,1-706.8,377.3Z" transform="translate(725.565 -363.636)" fill="#fefefe"/>
  </g>
</svg>
